<?xml version="1.0" encoding="UTF-8"?>
<svg id="_レイヤー_2" data-name="レイヤー 2" xmlns="http://www.w3.org/2000/svg" viewBox="0 0 939.39 285.02">
  <defs>
    <style>
      .cls-1 {
        fill: #040000;
      }
    </style>
  </defs>
  <g id="_レイヤー_1-2" data-name="レイヤー 1">
    <g>
      <path class="cls-1" d="M147.16,142.51c1.01-23.4-10.33-43.85-30.37-59.19-6.57-5.03-13.14-8.76-19.51-11.43-10.3-5.27-14.08-9.69-12.96-19.5L92.3,1.6c.22-1.42-1.59-2.2-2.47-1.06L21.91,89.26C7.58,107.98.71,125.98,0,142.51h.06c-1.01,23.4,10.33,43.85,30.37,59.19,6.57,5.03,13.14,8.76,19.51,11.43,10.37,4.5,14.08,9.69,12.96,19.5l-7.98,50.8c-.22,1.42,1.59,2.2,2.47,1.06l67.92-88.72c14.33-18.72,21.2-36.72,21.91-53.25h-.06ZM112.56,146.08c-1.97,21.49-20.99,37.32-42.49,35.34-20.29-1.86-35.52-18.93-35.5-38.92h-.08c0-1.18.05-2.37.16-3.57,1.97-21.49,20.99-37.32,42.49-35.34,20.29,1.86,35.52,18.93,35.5,38.92h.08c0,1.18-.05,2.37-.16,3.57Z"/>
      <g>
        <path class="cls-1" d="M334.48,211.73h-21.02c-1.45,0-2.63-1.18-2.63-2.63v-94.3c0-7.16-7.54-15.18-18.37-15.22h-59.51v109.52c0,1.45-1.18,2.63-2.63,2.63h-21.02c-1.45,0-2.63-1.18-2.63-2.63v-120.61c0-8.39,6.8-15.19,15.19-15.19h70.64c10.83.04,21.75,4.05,30,10.98,9.41,7.91,14.59,18.75,14.59,30.51v94.3c0,1.45-1.18,2.63-2.63,2.63Z"/>
        <path class="cls-1" d="M603.89,211.73h-21.02c-1.45,0-2.63-1.18-2.63-2.63v-94.3c0-7.16-7.54-15.18-18.37-15.22h-59.51v109.52c0,1.45-1.18,2.63-2.63,2.63h-21.02c-1.45,0-2.63-1.18-2.63-2.63v-120.61c0-8.39,6.8-15.19,15.19-15.19h70.64c10.83.04,21.75,4.05,30,10.98,9.41,7.91,14.59,18.75,14.59,30.51v94.3c0,1.45-1.18,2.63-2.63,2.63Z"/>
        <rect class="cls-1" x="392.07" y="78.02" width="26.28" height="133.71" rx="2.63" ry="2.63"/>
        <path class="cls-1" d="M900.62,211.73c-1.02,0-1.86-.04-2.46-.08h-85.26c-1.45,0-2.63-1.18-2.63-2.63v-21.32c0-1.45,1.18-2.63,2.63-2.63h86.7l.43.06c.78.04,6.2.16,9.37-2.77,2.27-2.1,3.42-5.93,3.42-11.4s-1.22-9.59-3.63-11.91c-3.36-3.23-8.91-3.33-9.7-3.32l-.54.05-.26-.03h-52.95c-14.85,0-36.95-11.13-36.95-41.78,0-15.82,6.29-25.17,11.57-30.22,10.67-10.22,24.53-10.5,27.43-10.45h82.45c1.45,0,2.63,1.18,2.63,2.63v21.32c0,1.45-1.18,2.63-2.63,2.63h-83.14c-.9.03-5.59.33-8.46,3.17-2.17,2.15-3.28,5.83-3.28,10.94,0,6.53,1.64,10.97,4.87,13.21,2.45,1.7,5.27,1.97,5.71,2h52.43c3.42-.13,17.75,0,28.85,10.36,5.55,5.18,12.16,14.84,12.16,31.42s-6.7,26.2-12.33,31.25c-9.29,8.34-20.76,9.51-26.44,9.51ZM845.8,129.19s-.07,0-.07,0h.16s-.06,0-.09,0Z"/>
        <path class="cls-1" d="M687.84,99.89h80.81c1.45,0,2.63-1.18,2.63-2.63v-21.33c0-1.45-1.18-2.63-2.63-2.63h-80.81c-8.66,0-24.42,3.35-32.72,25.78-3.9,10.55-5.96,24.68-6.29,43.2v.23s0,.23,0,.23c.33,18.53,2.38,32.66,6.29,43.2,8.31,22.43,24.07,25.78,32.72,25.78h80.81c1.45,0,2.63-1.18,2.63-2.63v-21.33c0-1.45-1.18-2.63-2.63-2.63h-80.81c-1.63,0-4.67,0-7.79-8.42-1.91-5.15-3.24-12.16-3.98-20.91h86.45c1.45,0,2.63-1.18,2.63-2.63v-21.33c0-1.45-1.18-2.63-2.63-2.63h-86.45c.74-8.75,2.07-15.76,3.98-20.91,3.12-8.42,6.16-8.42,7.79-8.42Z"/>
        <circle class="cls-1" cx="405.21" cy="50.23" r="13.14"/>
      </g>
    </g>
  </g>
</svg>