<?xml version="1.0" encoding="UTF-8"?>
<svg id="_レイヤー_2" data-name="レイヤー 2" xmlns="http://www.w3.org/2000/svg" viewBox="0 0 940.18 283.42">
  <defs>
    <style>
      .cls-1 {
        fill: #fff;
      }
    </style>
  </defs>
  <g id="_レイヤー_1-2" data-name="レイヤー 1">
    <g>
      <g>
        <path class="cls-1" d="M335.27,180.12h-21.02c-1.45,0-2.63-1.18-2.63-2.63v-94.3c0-7.16-7.54-15.18-18.37-15.22h-59.51v109.52c0,1.45-1.18,2.63-2.63,2.63h-21.02c-1.45,0-2.63-1.18-2.63-2.63V56.89c0-8.39,6.8-15.19,15.19-15.19h70.64c10.83.04,21.75,4.05,30,10.98,9.41,7.91,14.59,18.75,14.59,30.51v94.3c0,1.45-1.18,2.63-2.63,2.63Z"/>
        <path class="cls-1" d="M604.68,180.12h-21.02c-1.45,0-2.63-1.18-2.63-2.63v-94.3c0-7.16-7.54-15.18-18.37-15.22h-59.51v109.52c0,1.45-1.18,2.63-2.63,2.63h-21.02c-1.45,0-2.63-1.18-2.63-2.63V56.89c0-8.39,6.8-15.19,15.19-15.19h70.64c10.83.04,21.75,4.05,30,10.98,9.41,7.91,14.59,18.75,14.59,30.51v94.3c0,1.45-1.18,2.63-2.63,2.63Z"/>
        <rect class="cls-1" x="392.87" y="46.42" width="26.28" height="133.71" rx="2.63" ry="2.63"/>
        <path class="cls-1" d="M901.41,180.12c-1.02,0-1.86-.04-2.46-.08h-85.26c-1.45,0-2.63-1.18-2.63-2.63v-21.32c0-1.45,1.18-2.63,2.63-2.63h86.7l.43.06c.78.04,6.2.16,9.37-2.77,2.27-2.1,3.42-5.93,3.42-11.4s-1.22-9.59-3.63-11.91c-3.36-3.23-8.91-3.33-9.7-3.32l-.54.05-.26-.03h-52.95c-14.85,0-36.95-11.13-36.95-41.78,0-15.82,6.29-25.17,11.57-30.22,10.67-10.22,24.53-10.5,27.43-10.45h82.45c1.45,0,2.63,1.18,2.63,2.63v21.32c0,1.45-1.18,2.63-2.63,2.63h-83.14c-.9.03-5.59.33-8.46,3.17-2.17,2.15-3.28,5.83-3.28,10.94,0,6.53,1.64,10.97,4.87,13.21,2.45,1.7,5.27,1.97,5.71,2h52.43c3.42-.13,17.75,0,28.85,10.36,5.55,5.18,12.16,14.84,12.16,31.42s-6.7,26.2-12.33,31.25c-9.29,8.34-20.76,9.51-26.44,9.51ZM846.6,97.59s-.07,0-.07,0h.16s-.06,0-.09,0Z"/>
        <path class="cls-1" d="M688.63,68.28h80.81c1.45,0,2.63-1.18,2.63-2.63v-21.33c0-1.45-1.18-2.63-2.63-2.63h-80.81c-8.66,0-24.42,3.35-32.72,25.78-3.9,10.55-5.96,24.68-6.29,43.2v.23s0,.23,0,.23c.33,18.53,2.38,32.66,6.29,43.2,8.31,22.43,24.07,25.78,32.72,25.78h80.81c1.45,0,2.63-1.18,2.63-2.63v-21.33c0-1.45-1.18-2.63-2.63-2.63h-80.81c-1.63,0-4.67,0-7.79-8.42-1.91-5.15-3.24-12.16-3.98-20.91h86.45c1.45,0,2.63-1.18,2.63-2.63v-21.33c0-1.45-1.18-2.63-2.63-2.63h-86.45c.74-8.75,2.07-15.76,3.98-20.91,3.12-8.42,6.16-8.42,7.79-8.42Z"/>
        <circle class="cls-1" cx="406" cy="18.63" r="13.14"/>
      </g>
      <g>
        <path class="cls-1" d="M205.41,245.17v-39.23c0-.53.35-.88.88-.88h12.06c13.7,0,20.9,8.96,20.9,20.49s-7.2,20.49-20.9,20.49h-12.06c-.53,0-.88-.35-.88-.88ZM218.23,238.61c8.31,0,12.53-4.63,12.53-13.06s-4.21-13.06-12.53-13.06h-4.45v26.11h4.45Z"/>
        <path class="cls-1" d="M270.51,245.05l13.7-39.29c.18-.47.64-.7,1.11-.7h7.08c.47,0,.94.23,1.11.7l13.7,39.29c.23.59-.12,1-.76,1h-6.91c-.47,0-.82-.18-1-.7l-1.99-6.03h-15.46l-1.99,6.03c-.17.53-.53.7-1,.7h-6.91c-.64,0-.94-.41-.7-1ZM294.16,231.88l-5.33-16.28-5.33,16.28h10.66Z"/>
        <path class="cls-1" d="M345.04,245.17v-32.67h-8.02c-.53,0-.88-.35-.88-.88v-5.68c0-.53.35-.88.88-.88h24.36c.53,0,.88.35.88.88v5.68c0,.53-.35.88-.88.88h-7.96v32.67c0,.53-.35.88-.88.88h-6.62c-.53,0-.88-.35-.88-.88Z"/>
        <path class="cls-1" d="M391.23,245.05l13.7-39.29c.18-.47.64-.7,1.11-.7h7.08c.47,0,.94.23,1.11.7l13.7,39.29c.23.59-.12,1-.76,1h-6.91c-.47,0-.82-.18-1-.7l-1.99-6.03h-15.46l-1.99,6.03c-.17.53-.53.7-1,.7h-6.91c-.64,0-.94-.41-.7-1ZM414.88,231.88l-5.33-16.28-5.33,16.28h10.66Z"/>
        <path class="cls-1" d="M516.05,245.05l13.7-39.29c.18-.47.64-.7,1.11-.7h7.08c.47,0,.94.23,1.11.7l13.7,39.29c.23.59-.12,1-.76,1h-6.91c-.47,0-.82-.18-1-.7l-1.99-6.03h-15.46l-1.99,6.03c-.17.53-.53.7-1,.7h-6.91c-.64,0-.94-.41-.7-1ZM539.7,231.88l-5.33-16.28-5.33,16.28h10.66Z"/>
        <path class="cls-1" d="M612,245.46l-14.64-26.99v26.7c0,.53-.35.88-.88.88h-6.62c-.53,0-.88-.35-.88-.88v-39.23c0-.53.35-.88.88-.88h7.79c.47,0,.82.18,1.05.59l14.64,26.99v-26.7c0-.53.35-.88.88-.88h6.62c.53,0,.88.35.88.88v39.23c0,.53-.35.88-.88.88h-7.79c-.47,0-.82-.18-1.05-.59Z"/>
        <path class="cls-1" d="M657.96,245.05l13.7-39.29c.18-.47.64-.7,1.11-.7h7.08c.47,0,.94.23,1.11.7l13.7,39.29c.23.59-.12,1-.76,1h-6.91c-.47,0-.82-.18-1-.7l-1.99-6.03h-15.46l-1.99,6.03c-.17.53-.53.7-1,.7h-6.91c-.64,0-.94-.41-.7-1ZM681.61,231.88l-5.33-16.28-5.33,16.28h10.66Z"/>
        <path class="cls-1" d="M730.91,245.17v-39.23c0-.53.35-.88.88-.88h6.62c.53,0,.88.35.88.88v32.67h12.53c.53,0,.88.35.88.88v5.68c0,.53-.35.88-.88.88h-20.02c-.53,0-.88-.35-.88-.88Z"/>
        <path class="cls-1" d="M793.14,245.17v-18.15l-12-20.9c-.35-.64-.12-1.05.59-1.05h6.91c.47,0,.82.18,1.05.59l7.67,13.76,7.61-13.76c.23-.41.59-.59,1.05-.59h6.91c.7,0,.94.41.58,1.05l-12,21.02v18.03c0,.53-.35.88-.88.88h-6.62c-.53,0-.88-.35-.88-.88Z"/>
        <path class="cls-1" d="M848.12,245.17v-5.97c0-.41.12-.7.35-1.05l17.56-25.64h-16.45c-.53,0-.88-.35-.88-.88v-5.68c0-.53.35-.88.88-.88h24.06c.53,0,.88.35.88.88v5.97c0,.41-.12.7-.35,1.05l-17.56,25.64h17.62c.53,0,.88.35.88.88v5.68c0,.53-.35.88-.88.88h-25.23c-.53,0-.88-.35-.88-.88Z"/>
        <path class="cls-1" d="M912.52,245.17v-39.23c0-.53.35-.88.88-.88h20.84c.53,0,.88.35.88.88v5.68c0,.53-.35.88-.88.88h-13.35v9.07h12.59c.53,0,.88.35.88.88v5.68c0,.53-.35.88-.88.88h-12.59v9.6h13.35c.53,0,.88.35.88.88v5.68c0,.53-.35.88-.88.88h-20.84c-.53,0-.88-.35-.88-.88Z"/>
      </g>
      <g>
        <path class="cls-1" d="M84.66,60.22c.71.09,1.25-.58,1.02-1.26-.76-2.28-.93-4.93-.56-8.16l7.62-48.51c.32-2.02-2.27-3.13-3.51-1.5l-49.47,64.61c-.61.8.25,1.88,1.17,1.46,10.25-4.66,21.62-7.27,33.59-7.27,3.44,0,6.82.22,10.15.64Z"/>
        <path class="cls-1" d="M99.35,70.85c-7.78-2.76-16.13-4.27-24.84-4.27-20.05,0-38.26,7.98-51.67,20.9C8.77,101.04,0,120.05,0,141.09c0,33.27,21.92,61.5,52.07,71.05,5.68,2.66,9.16,5.6,10.75,9.61,1.03,2.58,1.29,5.61.87,9.27l-7.98,50.8c-.22,1.42,1.59,2.2,2.47,1.06l52.75-68.9,13.49-17.62c15.09-13.64,24.6-33.37,24.6-55.27,0-32.37-20.76-59.98-49.66-70.23ZM113.36,144.48c-1.97,21.49-20.99,37.32-42.49,35.34-20.29-1.86-35.52-18.93-35.5-38.92h-.08c0-1.18.05-2.37.16-3.57,1.97-21.49,20.99-37.32,42.49-35.34,20.29,1.86,35.52,18.93,35.5,38.92h.08c0,1.18-.05,2.37-.16,3.57Z"/>
      </g>
    </g>
  </g>
</svg>